ffmpeg version 6.1.1-3ubuntu5 Copyright (c) 2000-2023 the FFmpeg developers
  built with gcc 13 (Ubuntu 13.2.0-23ubuntu3)
  configuration: --prefix=/usr --extra-version=3ubuntu5 --toolchain=hardened --libdir=/usr/lib/x86_64-linux-gnu --incdir=/usr/include/x86_64-linux-gnu --arch=amd64 --enable-gpl --disable-stripping --disable-omx --enable-gnutls --enable-libaom --enable-libass --enable-libbs2b --enable-libcaca --enable-libcdio --enable-libcodec2 --enable-libdav1d --enable-libflite --enable-libfontconfig --enable-libfreetype --enable-libfribidi --enable-libglslang --enable-libgme --enable-libgsm --enable-libharfbuzz --enable-libmp3lame --enable-libmysofa --enable-libopenjpeg --enable-libopenmpt --enable-libopus --enable-librubberband --enable-libshine --enable-libsnappy --enable-libsoxr --enable-libspeex --enable-libtheora --enable-libtwolame --enable-libvidstab --enable-libvorbis --enable-libvpx --enable-libwebp --enable-libx265 --enable-libxml2 --enable-libxvid --enable-libzimg --enable-openal --enable-opencl --enable-opengl --disable-sndio --enable-libvpl --disable-libmfx --enable-libdc1394 --enable-libdrm --enable-libiec61883 --enable-chromaprint --enable-frei0r --enable-ladspa --enable-libbluray --enable-libjack --enable-libpulse --enable-librabbitmq --enable-librist --enable-libsrt --enable-libssh --enable-libsvtav1 --enable-libx264 --enable-libzmq --enable-libzvbi --enable-lv2 --enable-sdl2 --enable-libplacebo --enable-librav1e --enable-pocketsphinx --enable-librsvg --enable-libjxl --enable-shared
  libavutil      58. 29.100 / 58. 29.100
  libavcodec     60. 31.102 / 60. 31.102
  libavformat    60. 16.100 / 60. 16.100
  libavdevice    60.  3.100 / 60.  3.100
  libavfilter     9. 12.100 /  9. 12.100
  libswscale      7.  5.100 /  7.  5.100
  libswresample   4. 12.100 /  4. 12.100
  libpostproc    57.  3.100 / 57.  3.100
[x11grab @ 0x564fd17ecec0] Stream #0: not enough frames to estimate rate; consider increasing probesize
Input #0, x11grab, from ':99':
  Duration: N/A, start: 1772762185.615462, bitrate: 768000 kb/s
  Stream #0:0: Video: rawvideo (BGR[0] / 0x524742), bgr0, 1600x1000, 768000 kb/s, 15 fps, 1000k tbr, 1000k tbn
Stream mapping:
  Stream #0:0 -> #0:0 (rawvideo (native) -> h264 (libx264))
Press [q] to stop, [?] for help
[libx264 @ 0x564fd17f5c40] using cpu capabilities: MMX2 SSE2Fast SSSE3 SSE4.2 AVX FMA3 BMI2 AVX2 AVX512
[libx264 @ 0x564fd17f5c40] profile High, level 4.0, 4:2:0, 8-bit
[libx264 @ 0x564fd17f5c40] 264 - core 164 r3108 31e19f9 - H.264/MPEG-4 AVC codec - Copyleft 2003-2023 - http://www.videolan.org/x264.html - options: cabac=1 ref=3 deblock=1:0:0 analyse=0x3:0x113 me=hex subme=7 psy=1 psy_rd=1.00:0.00 mixed_ref=1 me_range=16 chroma_me=1 trellis=1 8x8dct=1 cqm=0 deadzone=21,11 fast_pskip=1 chroma_qp_offset=-2 threads=6 lookahead_threads=1 sliced_threads=0 nr=0 decimate=1 interlaced=0 bluray_compat=0 constrained_intra=0 bframes=3 b_pyramid=2 b_adapt=1 b_bias=0 direct=1 weightb=1 open_gop=0 weightp=2 keyint=250 keyint_min=15 scenecut=40 intra_refresh=0 rc_lookahead=40 rc=crf mbtree=1 crf=23.0 qcomp=0.60 qpmin=0 qpmax=69 qpstep=4 ip_ratio=1.40 aq=1:1.00
Output #0, mp4, to '/workspace/artifacts/pr-828-demo/pr828-demo.mp4':
  Metadata:
    encoder         : Lavf60.16.100
  Stream #0:0: Video: h264 (avc1 / 0x31637661), yuv420p(tv, progressive), 1600x1000, q=2-31, 15 fps, 15360 tbn
    Metadata:
      encoder         : Lavc60.31.102 libx264
    Side data:
      cpb: bitrate max/min/avg: 0/0/0 buffer size: 0 vbv_delay: N/A
frame=    0 fps=0.0 q=0.0 size=       0kB time=N/A bitrate=N/A speed=N/A    frame=    0 fps=0.0 q=0.0 size=       0kB time=N/A bitrate=N/A speed=N/A    frame=    0 fps=0.0 q=0.0 size=       0kB time=N/A bitrate=N/A speed=N/A    frame=    0 fps=0.0 q=0.0 size=       0kB time=N/A bitrate=N/A speed=N/A    frame=    0 fps=0.0 q=0.0 size=       0kB time=N/A bitrate=N/A speed=N/A    frame=    0 fps=0.0 q=0.0 size=       0kB time=N/A bitrate=N/A speed=N/A    frame=    0 fps=0.0 q=0.0 size=       0kB time=N/A bitrate=N/A speed=N/A    frame=    7 fps=1.9 q=27.0 size=       0kB time=00:00:00.33 bitrate=   1.2kbits/s speed=0.0893x    frame=   15 fps=3.5 q=27.0 size=       0kB time=00:00:00.86 bitrate=   0.4kbits/s speed=0.203x    frame=   23 fps=4.8 q=27.0 size=       0kB time=00:00:01.40 bitrate=   0.3kbits/s speed=0.292x    frame=   31 fps=5.8 q=27.0 size=       0kB time=00:00:01.93 bitrate=   0.2kbits/s speed=0.363x    frame=   39 fps=6.6 q=27.0 size=       0kB time=00:00:02.46 bitrate=   0.2kbits/s speed=0.421x    frame=   47 fps=7.3 q=27.0 size=       0kB time=00:00:03.00 bitrate=   0.1kbits/s speed=0.469x    frame=   56 fps=8.1 q=27.0 size=       0kB time=00:00:03.53 bitrate=   0.1kbits/s speed=0.51x    frame=   64 fps=8.6 q=27.0 size=       0kB time=00:00:04.06 bitrate=   0.1kbits/s speed=0.545x    frame=   71 fps=8.9 q=27.0 size=       0kB time=00:00:04.60 bitrate=   0.1kbits/s speed=0.575x    frame=   79 fps=9.3 q=27.0 size=       0kB time=00:00:05.13 bitrate=   0.1kbits/s speed=0.601x    frame=   87 fps=9.6 q=27.0 size=       0kB time=00:00:05.66 bitrate=   0.1kbits/s speed=0.625x    frame=   95 fps=9.9 q=27.0 size=       0kB time=00:00:06.20 bitrate=   0.1kbits/s speed=0.646x    frame=  103 fps= 10 q=27.0 size=       0kB time=00:00:06.73 bitrate=   0.1kbits/s speed=0.665x    frame=  111 fps= 10 q=27.0 size=       0kB time=00:00:07.26 bitrate=   0.1kbits/s speed=0.681x    frame=  119 fps= 11 q=27.0 size=       0kB time=00:00:07.80 bitrate=   0.0kbits/s speed=0.696x    frame=  127 fps= 11 q=27.0 size=       0kB time=00:00:08.33 bitrate=   0.0kbits/s speed=0.71x    frame=  135 fps= 11 q=27.0 size=       0kB time=00:00:08.86 bitrate=   0.0kbits/s speed=0.723x    frame=  143 fps= 11 q=27.0 size=       0kB time=00:00:09.40 bitrate=   0.0kbits/s speed=0.734x    frame=  151 fps= 11 q=27.0 size=       0kB time=00:00:09.93 bitrate=   0.0kbits/s speed=0.745x    frame=  159 fps= 11 q=27.0 size=       0kB time=00:00:10.46 bitrate=   0.0kbits/s speed=0.755x    frame=  167 fps= 12 q=27.0 size=       0kB time=00:00:11.00 bitrate=   0.0kbits/s speed=0.764x    frame=  175 fps= 12 q=27.0 size=       0kB time=00:00:11.53 bitrate=   0.0kbits/s speed=0.772x    frame=  183 fps= 12 q=27.0 size=       0kB time=00:00:12.06 bitrate=   0.0kbits/s speed=0.78x    frame=  191 fps= 12 q=27.0 size=       0kB time=00:00:12.60 bitrate=   0.0kbits/s speed=0.788x    frame=  199 fps= 12 q=27.0 size=       0kB time=00:00:13.13 bitrate=   0.0kbits/s speed=0.794x    frame=  207 fps= 12 q=27.0 size=       0kB time=00:00:13.66 bitrate=   0.0kbits/s speed=0.801x    frame=  216 fps= 12 q=27.0 size=       0kB time=00:00:14.20 bitrate=   0.0kbits/s speed=0.807x    frame=  223 fps= 12 q=27.0 size=       0kB time=00:00:14.73 bitrate=   0.0kbits/s speed=0.813x    frame=  231 fps= 12 q=27.0 size=       0kB time=00:00:15.26 bitrate=   0.0kbits/s speed=0.818x    frame=  239 fps= 12 q=27.0 size=       0kB time=00:00:15.80 bitrate=   0.0kbits/s speed=0.823x    frame=  247 fps= 13 q=27.0 size=       0kB time=00:00:16.33 bitrate=   0.0kbits/s speed=0.828x    frame=  255 fps= 13 q=27.0 size=       0kB time=00:00:16.86 bitrate=   0.0kbits/s speed=0.832x    frame=  263 fps= 13 q=27.0 size=       0kB time=00:00:17.40 bitrate=   0.0kbits/s speed=0.837x    frame=  271 fps= 13 q=27.0 size=       0kB time=00:00:17.93 bitrate=   0.0kbits/s speed=0.841x    frame=  279 fps= 13 q=27.0 size=       0kB time=00:00:18.46 bitrate=   0.0kbits/s speed=0.845x    frame=  287 fps= 13 q=27.0 size=       0kB time=00:00:19.00 bitrate=   0.0kbits/s speed=0.848x    frame=  295 fps= 13 q=27.0 size=       0kB time=00:00:19.53 bitrate=   0.0kbits/s speed=0.852x    frame=  303 fps= 13 q=27.0 size=       0kB time=00:00:20.06 bitrate=   0.0kbits/s speed=0.855x    frame=  311 fps= 13 q=27.0 size=       0kB time=00:00:20.60 bitrate=   0.0kbits/s speed=0.858x    frame=  319 fps= 13 q=27.0 size=       0kB time=00:00:21.13 bitrate=   0.0kbits/s speed=0.861x    frame=  327 fps= 13 q=27.0 size=       0kB time=00:00:21.66 bitrate=   0.0kbits/s speed=0.864x    frame=  335 fps= 13 q=27.0 size=       0kB time=00:00:22.20 bitrate=   0.0kbits/s speed=0.867x    frame=  343 fps= 13 q=27.0 size=       0kB time=00:00:22.73 bitrate=   0.0kbits/s speed=0.87x    frame=  351 fps= 13 q=27.0 size=       0kB time=00:00:23.26 bitrate=   0.0kbits/s speed=0.873x    frame=  359 fps= 13 q=27.0 size=       0kB time=00:00:23.80 bitrate=   0.0kbits/s speed=0.875x    frame=  367 fps= 13 q=27.0 size=       0kB time=00:00:24.33 bitrate=   0.0kbits/s speed=0.877x    frame=  376 fps= 13 q=27.0 size=       0kB time=00:00:24.86 bitrate=   0.0kbits/s speed=0.88x    frame=  384 fps= 13 q=27.0 size=       0kB time=00:00:25.40 bitrate=   0.0kbits/s speed=0.882x    frame=  391 fps= 13 q=27.0 size=       0kB time=00:00:25.93 bitrate=   0.0kbits/s speed=0.884x    frame=  399 fps= 13 q=27.0 size=       0kB time=00:00:26.46 bitrate=   0.0kbits/s speed=0.886x    frame=  408 fps= 13 q=27.0 size=       0kB time=00:00:27.00 bitrate=   0.0kbits/s speed=0.888x    frame=  415 fps= 13 q=27.0 size=       0kB time=00:00:27.53 bitrate=   0.0kbits/s speed=0.89x    frame=  423 fps= 13 q=27.0 size=       0kB time=00:00:28.06 bitrate=   0.0kbits/s speed=0.892x    frame=  431 fps= 13 q=27.0 size=       0kB time=00:00:28.60 bitrate=   0.0kbits/s speed=0.894x    frame=  439 fps= 13 q=27.0 size=       0kB time=00:00:29.13 bitrate=   0.0kbits/s speed=0.896x    frame=  447 fps= 14 q=27.0 size=       0kB time=00:00:29.66 bitrate=   0.0kbits/s speed=0.897x    frame=  455 fps= 14 q=27.0 size=       0kB time=00:00:30.20 bitrate=   0.0kbits/s speed=0.899x    frame=  463 fps= 14 q=27.0 size=       0kB time=00:00:30.73 bitrate=   0.0kbits/s speed= 0.9x    frame=  471 fps= 14 q=27.0 size=       0kB time=00:00:31.26 bitrate=   0.0kbits/s speed=0.902x    frame=  479 fps= 14 q=27.0 size=       0kB time=00:00:31.80 bitrate=   0.0kbits/s speed=0.903x    frame=  487 fps= 14 q=27.0 size=       0kB time=00:00:32.33 bitrate=   0.0kbits/s speed=0.905x    frame=  495 fps= 14 q=24.0 size=       0kB time=00:00:32.86 bitrate=   0.0kbits/s speed=0.906x    frame=  503 fps= 14 q=27.0 size=       0kB time=00:00:33.40 bitrate=   0.0kbits/s speed=0.908x    frame=  511 fps= 14 q=27.0 size=       0kB time=00:00:33.93 bitrate=   0.0kbits/s speed=0.909x    frame=  519 fps= 14 q=27.0 size=       0kB time=00:00:34.46 bitrate=   0.0kbits/s speed=0.91x    frame=  527 fps= 14 q=27.0 size=       0kB time=00:00:35.00 bitrate=   0.0kbits/s speed=0.911x    frame=  535 fps= 14 q=27.0 size=       0kB time=00:00:35.53 bitrate=   0.0kbits/s speed=0.913x    frame=  544 fps= 14 q=27.0 size=       0kB time=00:00:36.06 bitrate=   0.0kbits/s speed=0.914x    frame=  551 fps= 14 q=27.0 size=       0kB time=00:00:36.60 bitrate=   0.0kbits/s speed=0.915x    frame=  559 fps= 14 q=27.0 size=       0kB time=00:00:37.13 bitrate=   0.0kbits/s speed=0.916x    frame=  567 fps= 14 q=27.0 size=       0kB time=00:00:37.66 bitrate=   0.0kbits/s speed=0.917x    frame=  575 fps= 14 q=27.0 size=       0kB time=00:00:38.20 bitrate=   0.0kbits/s speed=0.918x    frame=  583 fps= 14 q=27.0 size=       0kB time=00:00:38.73 bitrate=   0.0kbits/s speed=0.919x    frame=  591 fps= 14 q=27.0 size=       0kB time=00:00:39.26 bitrate=   0.0kbits/s speed=0.92x    frame=  599 fps= 14 q=27.0 size=       0kB time=00:00:39.80 bitrate=   0.0kbits/s speed=0.921x    frame=  607 fps= 14 q=27.0 size=       0kB time=00:00:40.33 bitrate=   0.0kbits/s speed=0.922x    frame=  615 fps= 14 q=27.0 size=       0kB time=00:00:40.86 bitrate=   0.0kbits/s speed=0.923x    frame=  623 fps= 14 q=27.0 size=       0kB time=00:00:41.40 bitrate=   0.0kbits/s speed=0.924x    frame=  631 fps= 14 q=27.0 size=       0kB time=00:00:41.93 bitrate=   0.0kbits/s speed=0.925x    frame=  639 fps= 14 q=27.0 size=       0kB time=00:00:42.46 bitrate=   0.0kbits/s speed=0.926x    frame=  647 fps= 14 q=27.0 size=       0kB time=00:00:43.00 bitrate=   0.0kbits/s speed=0.927x    frame=  655 fps= 14 q=27.0 size=       0kB time=00:00:43.53 bitrate=   0.0kbits/s speed=0.928x    frame=  663 fps= 14 q=27.0 size=       0kB time=00:00:44.06 bitrate=   0.0kbits/s speed=0.928x    frame=  671 fps= 14 q=27.0 size=       0kB time=00:00:44.60 bitrate=   0.0kbits/s speed=0.929x    frame=  679 fps= 14 q=27.0 size=       0kB time=00:00:45.13 bitrate=   0.0kbits/s speed=0.93x    frame=  687 fps= 14 q=27.0 size=       0kB time=00:00:45.66 bitrate=   0.0kbits/s speed=0.931x    frame=  695 fps= 14 q=27.0 size=       0kB time=00:00:46.20 bitrate=   0.0kbits/s speed=0.931x    frame=  703 fps= 14 q=27.0 size=       0kB time=00:00:46.73 bitrate=   0.0kbits/s speed=0.932x    frame=  711 fps= 14 q=27.0 size=       0kB time=00:00:47.26 bitrate=   0.0kbits/s speed=0.933x    frame=  720 fps= 14 q=27.0 size=       0kB time=00:00:47.80 bitrate=   0.0kbits/s speed=0.934x    frame=  727 fps= 14 q=27.0 size=       0kB time=00:00:48.33 bitrate=   0.0kbits/s speed=0.934x    frame=  735 fps= 14 q=27.0 size=       0kB time=00:00:48.86 bitrate=   0.0kbits/s speed=0.935x    frame=  743 fps= 14 q=27.0 size=       0kB time=00:00:49.40 bitrate=   0.0kbits/s speed=0.936x    frame=  751 fps= 14 q=27.0 size=       0kB time=00:00:49.93 bitrate=   0.0kbits/s speed=0.936x    frame=  759 fps= 14 q=27.0 size=       0kB time=00:00:50.46 bitrate=   0.0kbits/s speed=0.937x    frame=  767 fps= 14 q=27.0 size=       0kB time=00:00:51.00 bitrate=   0.0kbits/s speed=0.938x    frame=  775 fps= 14 q=27.0 size=       0kB time=00:00:51.53 bitrate=   0.0kbits/s speed=0.938x    frame=  783 fps= 14 q=27.0 size=       0kB time=00:00:52.06 bitrate=   0.0kbits/s speed=0.939x    frame=  791 fps= 14 q=27.0 size=       0kB time=00:00:52.60 bitrate=   0.0kbits/s speed=0.939x    frame=  800 fps= 14 q=27.0 size=       0kB time=00:00:53.13 bitrate=   0.0kbits/s speed=0.94x    frame=  807 fps= 14 q=27.0 size=       0kB time=00:00:53.66 bitrate=   0.0kbits/s speed=0.94x    frame=  815 fps= 14 q=27.0 size=       0kB time=00:00:54.20 bitrate=   0.0kbits/s speed=0.941x    frame=  823 fps= 14 q=27.0 size=       0kB time=00:00:54.73 bitrate=   0.0kbits/s speed=0.942x    frame=  831 fps= 14 q=27.0 size=       0kB time=00:00:55.26 bitrate=   0.0kbits/s speed=0.942x    frame=  840 fps= 14 q=27.0 size=       0kB time=00:00:55.80 bitrate=   0.0kbits/s speed=0.943x    frame=  847 fps= 14 q=27.0 size=       0kB time=00:00:56.33 bitrate=   0.0kbits/s speed=0.943x    frame=  855 fps= 14 q=27.0 size=       0kB time=00:00:56.86 bitrate=   0.0kbits/s speed=0.944x    frame=  863 fps= 14 q=27.0 size=       0kB time=00:00:57.40 bitrate=   0.0kbits/s speed=0.944x    frame=  871 fps= 14 q=27.0 size=       0kB time=00:00:57.93 bitrate=   0.0kbits/s speed=0.945x    frame=  879 fps= 14 q=27.0 size=       0kB time=00:00:58.46 bitrate=   0.0kbits/s speed=0.945x    frame=  887 fps= 14 q=27.0 size=       0kB time=00:00:59.00 bitrate=   0.0kbits/s speed=0.946x    frame=  895 fps= 14 q=27.0 size=       0kB time=00:00:59.53 bitrate=   0.0kbits/s speed=0.946x    frame=  903 fps= 14 q=27.0 size=       0kB time=00:01:00.06 bitrate=   0.0kbits/s speed=0.946x    frame=  911 fps= 14 q=27.0 size=       0kB time=00:01:00.60 bitrate=   0.0kbits/s speed=0.947x    frame=  919 fps= 14 q=27.0 size=       0kB time=00:01:01.13 bitrate=   0.0kbits/s speed=0.947x    frame=  927 fps= 14 q=27.0 size=       0kB time=00:01:01.66 bitrate=   0.0kbits/s speed=0.948x    frame=  935 fps= 14 q=27.0 size=       0kB time=00:01:02.20 bitrate=   0.0kbits/s speed=0.948x    frame=  943 fps= 14 q=27.0 size=       0kB time=00:01:02.73 bitrate=   0.0kbits/s speed=0.949x    frame=  951 fps= 14 q=27.0 size=       0kB time=00:01:03.26 bitrate=   0.0kbits/s speed=0.949x    frame=  959 fps= 14 q=27.0 size=       0kB time=00:01:03.80 bitrate=   0.0kbits/s speed=0.949x    frame=  967 fps= 14 q=27.0 size=       0kB time=00:01:04.33 bitrate=   0.0kbits/s speed=0.95x    frame=  975 fps= 14 q=27.0 size=       0kB time=00:01:04.86 bitrate=   0.0kbits/s speed=0.95x    frame=  983 fps= 14 q=27.0 size=       0kB time=00:01:05.40 bitrate=   0.0kbits/s speed=0.951x    frame=  991 fps= 14 q=27.0 size=       0kB time=00:01:05.93 bitrate=   0.0kbits/s speed=0.951x    frame=  999 fps= 14 q=27.0 size=       0kB time=00:01:06.46 bitrate=   0.0kbits/s speed=0.951x    frame= 1007 fps= 14 q=27.0 size=       0kB time=00:01:07.00 bitrate=   0.0kbits/s speed=0.952x    frame= 1015 fps= 14 q=27.0 size=       0kB time=00:01:07.53 bitrate=   0.0kbits/s speed=0.952x    frame= 1023 fps= 14 q=27.0 size=       0kB time=00:01:08.06 bitrate=   0.0kbits/s speed=0.952x    frame= 1031 fps= 14 q=27.0 size=       0kB time=00:01:08.60 bitrate=   0.0kbits/s speed=0.953x    frame= 1039 fps= 14 q=27.0 size=       0kB time=00:01:09.13 bitrate=   0.0kbits/s speed=0.953x    frame= 1047 fps= 14 q=27.0 size=       0kB time=00:01:09.66 bitrate=   0.0kbits/s speed=0.953x    frame= 1055 fps= 14 q=27.0 size=       0kB time=00:01:10.20 bitrate=   0.0kbits/s speed=0.954x    frame= 1063 fps= 14 q=27.0 size=       0kB time=00:01:10.73 bitrate=   0.0kbits/s speed=0.954x    frame= 1071 fps= 14 q=27.0 size=       0kB time=00:01:11.26 bitrate=   0.0kbits/s speed=0.954x    frame= 1079 fps= 14 q=27.0 size=       0kB time=00:01:11.80 bitrate=   0.0kbits/s speed=0.955x    frame= 1087 fps= 14 q=27.0 size=       0kB time=00:01:12.33 bitrate=   0.0kbits/s speed=0.955x    frame= 1095 fps= 14 q=27.0 size=       0kB time=00:01:12.86 bitrate=   0.0kbits/s speed=0.955x    frame= 1103 fps= 14 q=27.0 size=       0kB time=00:01:13.40 bitrate=   0.0kbits/s speed=0.956x    frame= 1111 fps= 14 q=27.0 size=       0kB time=00:01:13.93 bitrate=   0.0kbits/s speed=0.956x    frame= 1119 fps= 14 q=27.0 size=       0kB time=00:01:14.46 bitrate=   0.0kbits/s speed=0.956x    frame= 1127 fps= 14 q=27.0 size=       0kB time=00:01:15.00 bitrate=   0.0kbits/s speed=0.957x    frame= 1135 fps= 14 q=27.0 size=       0kB time=00:01:15.53 bitrate=   0.0kbits/s speed=0.957x    frame= 1143 fps= 14 q=27.0 size=       0kB time=00:01:16.06 bitrate=   0.0kbits/s speed=0.957x    frame= 1151 fps= 14 q=27.0 size=       0kB time=00:01:16.60 bitrate=   0.0kbits/s speed=0.957x    frame= 1159 fps= 14 q=27.0 size=       0kB time=00:01:17.13 bitrate=   0.0kbits/s speed=0.958x    frame= 1167 fps= 14 q=27.0 size=       0kB time=00:01:17.66 bitrate=   0.0kbits/s speed=0.958x    frame= 1175 fps= 14 q=27.0 size=       0kB time=00:01:18.20 bitrate=   0.0kbits/s speed=0.958x    frame= 1183 fps= 14 q=27.0 size=       0kB time=00:01:18.73 bitrate=   0.0kbits/s speed=0.959x    frame= 1191 fps= 14 q=27.0 size=       0kB time=00:01:19.26 bitrate=   0.0kbits/s speed=0.959x    frame= 1199 fps= 14 q=27.0 size=       0kB time=00:01:19.80 bitrate=   0.0kbits/s speed=0.959x    frame= 1207 fps= 14 q=27.0 size=       0kB time=00:01:20.33 bitrate=   0.0kbits/s speed=0.959x    frame= 1215 fps= 14 q=27.0 size=       0kB time=00:01:20.86 bitrate=   0.0kbits/s speed=0.96x    frame= 1223 fps= 14 q=27.0 size=       0kB time=00:01:21.40 bitrate=   0.0kbits/s speed=0.96x    frame= 1231 fps= 14 q=27.0 size=       0kB time=00:01:21.93 bitrate=   0.0kbits/s speed=0.96x    frame= 1240 fps= 14 q=27.0 size=       0kB time=00:01:22.46 bitrate=   0.0kbits/s speed=0.96x    frame= 1247 fps= 14 q=27.0 size=       0kB time=00:01:23.00 bitrate=   0.0kbits/s speed=0.961x    frame= 1255 fps= 14 q=27.0 size=       0kB time=00:01:23.53 bitrate=   0.0kbits/s speed=0.961x    frame= 1263 fps= 14 q=27.0 size=       0kB time=00:01:24.06 bitrate=   0.0kbits/s speed=0.961x    frame= 1271 fps= 14 q=27.0 size=       0kB time=00:01:24.60 bitrate=   0.0kbits/s speed=0.961x    frame= 1279 fps= 14 q=27.0 size=       0kB time=00:01:25.13 bitrate=   0.0kbits/s speed=0.962x    frame= 1287 fps= 14 q=27.0 size=       0kB time=00:01:25.66 bitrate=   0.0kbits/s speed=0.962x    frame= 1295 fps= 14 q=27.0 size=       0kB time=00:01:26.20 bitrate=   0.0kbits/s speed=0.962x    frame= 1304 fps= 14 q=27.0 size=       0kB time=00:01:26.73 bitrate=   0.0kbits/s speed=0.962x    frame= 1311 fps= 14 q=27.0 size=       0kB time=00:01:27.26 bitrate=   0.0kbits/s speed=0.962x    [out#0/mp4 @ 0x564fd17f4400] video:104kB audio:0kB subtitle:0kB other streams:0kB global headers:0kB muxing overhead: 16.059425%
frame= 1362 fps= 15 q=-1.0 Lsize=     121kB time=00:01:30.60 bitrate=  11.0kbits/s speed=0.998x    
[libx264 @ 0x564fd17f5c40] frame I:6     Avg QP: 5.44  size:  2422
[libx264 @ 0x564fd17f5c40] frame P:343   Avg QP:17.55  size:    98
[libx264 @ 0x564fd17f5c40] frame B:1013  Avg QP:26.47  size:    58
[libx264 @ 0x564fd17f5c40] consecutive B-frames:  0.8%  0.0%  0.2% 99.0%
[libx264 @ 0x564fd17f5c40] mb I  I16..4: 95.3%  3.7%  0.9%
[libx264 @ 0x564fd17f5c40] mb P  I16..4:  0.5%  0.0%  0.0%  P16..4:  0.0%  0.0%  0.0%  0.0%  0.0%    skip:99.5%
[libx264 @ 0x564fd17f5c40] mb B  I16..4:  0.0%  0.0%  0.0%  B16..8:  0.0%  0.0%  0.0%  direct: 0.0%  skip:100.0%  L0:48.7% L1:50.6% BI: 0.7%
[libx264 @ 0x564fd17f5c40] 8x8 transform intra:3.3% inter:44.9%
[libx264 @ 0x564fd17f5c40] coded y,uvDC,uvAC intra: 0.4% 0.2% 0.1% inter: 0.0% 0.0% 0.0%
[libx264 @ 0x564fd17f5c40] i16 v,h,dc,p: 73% 27%  0%  0%
[libx264 @ 0x564fd17f5c40] i8 v,h,dc,ddl,ddr,vr,hd,vl,hu: 69%  0% 30%  0%  0%  0%  0%  0%  0%
[libx264 @ 0x564fd17f5c40] i4 v,h,dc,ddl,ddr,vr,hd,vl,hu: 42% 32% 17%  2%  1%  1%  1%  2%  2%
[libx264 @ 0x564fd17f5c40] i8c dc,h,v,p: 100%  0%  0%  0%
[libx264 @ 0x564fd17f5c40] Weighted P-Frames: Y:0.0% UV:0.0%
[libx264 @ 0x564fd17f5c40] ref P L0: 92.4%  0.2%  5.8%  1.5%
[libx264 @ 0x564fd17f5c40] ref B L0: 57.7% 41.3%  1.0%
[libx264 @ 0x564fd17f5c40] ref B L1: 91.4%  8.6%
[libx264 @ 0x564fd17f5c40] kb/s:9.36
Exiting normally, received signal 2.
